<svg width="120" height="30" viewBox="0 0 120 30" fill="none" xmlns="http://www.w3.org/2000/svg">
<path d="M109.311 0.00128174H102.421L98.4106 29.8228H105.866L106.268 23.6421L110.43 23.4242L112.874 29.8241H120L109.311 0.00128174ZM106.291 20.5342L106.882 13.8005L109.741 20.3532L106.291 20.5342Z" fill="white"/>
<path d="M69.3619 0.0162815L74.4731 22.5011L90.1998 21.3526L89.4221 29.8391H95.3724L97.6668 13.5913L91.3721 14.2564L93.9796 0.0137767L88.0106 0L85.0937 15.2258L79.2874 16.1025L78.6938 0L69.3619 0.0162815Z" fill="white"/>
<path d="M41.3827 0L52.2387 29.824L58.1502 29.8053L61.4716 8.56535L67.1927 29.8391L86.6053 29.8053L87.1201 24.361L72.1786 25.2915L65.9816 0L56.661 0.00500971L55.2007 18.1589L50.6757 0H41.3827Z" fill="white"/>
<path d="M27.7387 29.8416L26.2834 12.7535L30.8911 0.0137939H38.2504L49.1051 29.8366L39.7495 29.8416L33.6602 8.08944L32.1924 12.1047L33.7441 29.8416H27.7387Z" fill="white"/>
<path d="M3.02837 8.32238L0 0H13.8318L16.2527 6.64913L19.1834 6.31348L19.9587 0H27.9842L23.2475 13.0115L24.7204 29.824H10.8548L7.40936 20.3557L15.4136 20.3544L16.919 24.4912L18.2854 13.6264L13.1918 14.2514L10.692 7.3818L3.02837 8.32238Z" fill="white"/>
</svg>
